<svg width="25" height="25" viewBox="0 0 25 25" fill="none" xmlns="http://www.w3.org/2000/svg">
<circle cx="12.5" cy="12.5" r="12.5" fill="#383938"/>
<path d="M5.06306 11.7236L13.8007 8.16344C14.6629 7.79259 17.587 6.60589 17.587 6.60589C17.587 6.60589 18.9365 6.08671 18.8241 7.34758C18.7866 7.86676 18.4867 9.6839 18.1868 11.6522L17.2496 17.4774C17.2496 17.4774 17.1746 18.3303 16.5373 18.4786C15.9 18.627 14.8503 17.9595 14.6629 17.8111C14.5129 17.6999 11.8513 16.0311 10.8766 15.2152C10.6142 14.9927 10.3143 14.5477 10.9141 14.0285C12.2637 12.8047 13.8756 11.2842 14.8503 10.32C15.3002 9.87503 15.75 8.83667 13.8756 10.0975L8.58694 13.6149C8.58694 13.6149 7.98713 13.9857 6.86249 13.6519C5.73785 13.3182 4.42576 12.8732 4.42576 12.8732C4.42576 12.8732 3.52605 12.3169 5.06306 11.7236Z" fill="white"/>
</svg>
