<svg width="90" height="77" viewBox="0 0 90 77" fill="none" xmlns="http://www.w3.org/2000/svg">
<path d="M84.8376 56.7573C74.6412 75.2823 51.3578 82.034 32.8327 71.8376C14.3077 61.6412 7.55596 38.3578 17.7524 19.8327C27.9488 1.30765 51.2322 -5.44404 69.7573 4.75239C88.2823 14.9488 95.034 38.2322 84.8376 56.7573Z" fill="#E3FAED"/>
<path d="M41 54.8496L48.5429 61.0996L63 46.0996" stroke="#2ECC71" stroke-width="2.4" stroke-linecap="round" stroke-linejoin="round"/>
<mask id="path-3-inside-1" fill="white">
<path fill-rule="evenodd" clip-rule="evenodd" d="M0 57.0001C0 59.4001 2 61.3001 4.3 61.3001L35 61.2297V59.0001H4.3C3.2 59.0001 2.3 58.1001 2.3 57.0001V29.7001L5.6 39.6001C6.1 41.3001 7.8 42.5001 9.6 42.5001H18.7V44.5001C18.7 45.2001 19.3 45.7001 19.9 45.7001H32.4C33.1 45.7001 33.6 45.1001 33.6 44.5001V42.5001H42.7C44.5 42.5001 46.1 41.4001 46.7 39.6001L50 29.7001V46.0996H52.2V22.5001C52.1 21.7001 51.7 21.3001 51 21.3001H36.7V19.3001C36.7 16.9001 34.7 15.0001 32.4 15.0001H20C17.6 15.0001 15.7 16.9001 15.7 19.3001V21.3001H1.2C0.5 21.3001 0 21.9001 0 22.5001V57.0001ZM31.1 43.3001H21V39.4001H31.1V43.3001ZM33.5 38.2001C33.5 37.5001 32.9 37.0001 32.3 37.0001H20C19.3 37.0001 18.8 37.6001 18.8 38.2001V40.2001H9.7C8.8 40.2001 8.1 39.7001 7.8 38.9001L2.8 23.8001H49.5L44.5 38.9001C44.2 39.7001 43.4 40.2001 42.6 40.2001H33.5V38.2001ZM17.9 19.4001C17.9 18.3001 18.8 17.4001 19.9 17.4001H32.2C33.3 17.4001 34.2 18.3001 34.2 19.4001V21.4001H17.9V19.4001Z"/>
</mask>
<path fill-rule="evenodd" clip-rule="evenodd" d="M0 57.0001C0 59.4001 2 61.3001 4.3 61.3001L35 61.2297V59.0001H4.3C3.2 59.0001 2.3 58.1001 2.3 57.0001V29.7001L5.6 39.6001C6.1 41.3001 7.8 42.5001 9.6 42.5001H18.7V44.5001C18.7 45.2001 19.3 45.7001 19.9 45.7001H32.4C33.1 45.7001 33.6 45.1001 33.6 44.5001V42.5001H42.7C44.5 42.5001 46.1 41.4001 46.7 39.6001L50 29.7001V46.0996H52.2V22.5001C52.1 21.7001 51.7 21.3001 51 21.3001H36.7V19.3001C36.7 16.9001 34.7 15.0001 32.4 15.0001H20C17.6 15.0001 15.7 16.9001 15.7 19.3001V21.3001H1.2C0.5 21.3001 0 21.9001 0 22.5001V57.0001ZM31.1 43.3001H21V39.4001H31.1V43.3001ZM33.5 38.2001C33.5 37.5001 32.9 37.0001 32.3 37.0001H20C19.3 37.0001 18.8 37.6001 18.8 38.2001V40.2001H9.7C8.8 40.2001 8.1 39.7001 7.8 38.9001L2.8 23.8001H49.5L44.5 38.9001C44.2 39.7001 43.4 40.2001 42.6 40.2001H33.5V38.2001ZM17.9 19.4001C17.9 18.3001 18.8 17.4001 19.9 17.4001H32.2C33.3 17.4001 34.2 18.3001 34.2 19.4001V21.4001H17.9V19.4001Z" fill="#2B2B2B"/>
<path d="M4.3 61.3001V61.5001H4.30046L4.3 61.3001ZM35 61.2297L35.0005 61.4297L35.2 61.4292V61.2297H35ZM35 59.0001H35.2V58.8001H35V59.0001ZM2.3 29.7001L2.48974 29.6369L2.1 29.7001H2.3ZM5.6 39.6001L5.792 39.5436L5.78974 39.5369L5.6 39.6001ZM18.7 42.5001H18.9V42.3001H18.7V42.5001ZM33.6 42.5001V42.3001H33.4V42.5001H33.6ZM46.7 39.6001L46.5103 39.5369L46.7 39.6001ZM50 29.7001H50.2L49.8103 29.6369L50 29.7001ZM50 46.0996H49.8V46.2996H50V46.0996ZM52.2 46.0996V46.2996H52.4V46.0996H52.2ZM52.2 22.5001H52.4V22.4876L52.3985 22.4753L52.2 22.5001ZM36.7 21.3001H36.5V21.5001H36.7V21.3001ZM15.7 21.3001V21.5001H15.9V21.3001H15.7ZM21 43.3001H20.8V43.5001H21V43.3001ZM31.1 43.3001V43.5001H31.3V43.3001H31.1ZM21 39.4001V39.2001H20.8V39.4001H21ZM31.1 39.4001H31.3V39.2001H31.1V39.4001ZM18.8 40.2001V40.4001H19V40.2001H18.8ZM7.8 38.9001L7.60999 38.963L7.61273 38.9703L7.8 38.9001ZM2.8 23.8001V23.6001H2.5231L2.61014 23.863L2.8 23.8001ZM49.5 23.8001L49.6899 23.863L49.7769 23.6001H49.5V23.8001ZM44.5 38.9001L44.6874 38.9704L44.6899 38.963L44.5 38.9001ZM33.5 40.2001H33.3V40.4001H33.5V40.2001ZM34.2 21.4001V21.6001H34.4V21.4001H34.2ZM17.9 21.4001H17.7V21.6001H17.9V21.4001ZM4.3 61.1001C2.10743 61.1001 0.2 59.2866 0.2 57.0001H-0.2C-0.2 59.5136 1.89257 61.5001 4.3 61.5001V61.1001ZM34.9995 61.0297L4.29954 61.1001L4.30046 61.5001L35.0005 61.4297L34.9995 61.0297ZM35.2 61.2297V59.0001H34.8V61.2297H35.2ZM4.3 59.2001H35V58.8001H4.3V59.2001ZM2.1 57.0001C2.1 58.2106 3.08954 59.2001 4.3 59.2001V58.8001C3.31046 58.8001 2.5 57.9896 2.5 57.0001H2.1ZM2.1 29.7001V57.0001H2.5V29.7001H2.1ZM5.78974 39.5369L2.48974 29.6369L2.11026 29.7633L5.41026 39.6633L5.78974 39.5369ZM9.6 42.3001C7.88238 42.3001 6.26509 41.1526 5.79187 39.5437L5.40813 39.6565C5.93491 41.4476 7.71762 42.7001 9.6 42.7001V42.3001ZM18.7 42.3001H9.6V42.7001H18.7V42.3001ZM18.9 44.5001V42.5001H18.5V44.5001H18.9ZM19.9 45.5001C19.3995 45.5001 18.9 45.079 18.9 44.5001H18.5C18.5 45.3212 19.2005 45.9001 19.9 45.9001V45.5001ZM32.4 45.5001H19.9V45.9001H32.4V45.5001ZM33.4 44.5001C33.4 45.0006 32.9789 45.5001 32.4 45.5001V45.9001C33.2211 45.9001 33.8 45.1996 33.8 44.5001H33.4ZM33.4 42.5001V44.5001H33.8V42.5001H33.4ZM42.7 42.3001H33.6V42.7001H42.7V42.3001ZM46.5103 39.5369C45.9379 41.2539 44.4153 42.3001 42.7 42.3001V42.7001C44.5847 42.7001 46.2621 41.5463 46.8897 39.6633L46.5103 39.5369ZM49.8103 29.6369L46.5103 39.5369L46.8897 39.6633L50.1897 29.7633L49.8103 29.6369ZM50.2 46.0996V29.7001H49.8V46.0996H50.2ZM50 46.2996H52.2V45.8996H50V46.2996ZM52 22.5001V46.0996H52.4V22.5001H52ZM51 21.5001C51.3103 21.5001 51.5296 21.5875 51.6836 21.7415C51.8412 21.8991 51.9548 22.1508 52.0015 22.5249L52.3985 22.4753C52.3452 22.0494 52.2088 21.701 51.9664 21.4587C51.7204 21.2127 51.3897 21.1001 51 21.1001V21.5001ZM36.7 21.5001H51V21.1001H36.7V21.5001ZM36.5 19.3001V21.3001H36.9V19.3001H36.5ZM32.4 15.2001C34.5926 15.2001 36.5 17.0136 36.5 19.3001H36.9C36.9 16.7866 34.8074 14.8001 32.4 14.8001V15.2001ZM20 15.2001H32.4V14.8001H20V15.2001ZM15.9 19.3001C15.9 17.0106 17.7105 15.2001 20 15.2001V14.8001C17.4895 14.8001 15.5 16.7896 15.5 19.3001H15.9ZM15.9 21.3001V19.3001H15.5V21.3001H15.9ZM1.2 21.5001H15.7V21.1001H1.2V21.5001ZM0.2 22.5001C0.2 21.9996 0.621074 21.5001 1.2 21.5001V21.1001C0.378926 21.1001 -0.2 21.8006 -0.2 22.5001H0.2ZM0.2 57.0001V22.5001H-0.2V57.0001H0.2ZM21 43.5001H31.1V43.1001H21V43.5001ZM20.8 39.4001V43.3001H21.2V39.4001H20.8ZM31.1 39.2001H21V39.6001H31.1V39.2001ZM31.3 43.3001V39.4001H30.9V43.3001H31.3ZM32.3 37.2001C32.8005 37.2001 33.3 37.6212 33.3 38.2001H33.7C33.7 37.379 32.9995 36.8001 32.3 36.8001V37.2001ZM20 37.2001H32.3V36.8001H20V37.2001ZM19 38.2001C19 37.6996 19.4211 37.2001 20 37.2001V36.8001C19.1789 36.8001 18.6 37.5006 18.6 38.2001H19ZM19 40.2001V38.2001H18.6V40.2001H19ZM9.7 40.4001H18.8V40.0001H9.7V40.4001ZM7.61273 38.9703C7.94206 39.8485 8.71678 40.4001 9.7 40.4001V40.0001C8.88322 40.0001 8.25794 39.5517 7.98727 38.8299L7.61273 38.9703ZM2.61014 23.863L7.61014 38.963L7.98986 38.8372L2.98986 23.7372L2.61014 23.863ZM49.5 23.6001H2.8V24.0001H49.5V23.6001ZM44.6899 38.963L49.6899 23.863L49.3101 23.7372L44.3101 38.8372L44.6899 38.963ZM42.6 40.4001C43.4774 40.4001 44.356 39.8538 44.6873 38.9703L44.3127 38.8299C44.044 39.5464 43.3225 40.0001 42.6 40.0001V40.4001ZM33.5 40.4001H42.6V40.0001H33.5V40.4001ZM33.3 38.2001V40.2001H33.7V38.2001H33.3ZM19.9 17.2001C18.6895 17.2001 17.7 18.1896 17.7 19.4001H18.1C18.1 18.4106 18.9105 17.6001 19.9 17.6001V17.2001ZM32.2 17.2001H19.9V17.6001H32.2V17.2001ZM34.4 19.4001C34.4 18.1896 33.4105 17.2001 32.2 17.2001V17.6001C33.1895 17.6001 34 18.4106 34 19.4001H34.4ZM34.4 21.4001V19.4001H34V21.4001H34.4ZM17.9 21.6001H34.2V21.2001H17.9V21.6001ZM17.7 19.4001V21.4001H18.1V19.4001H17.7Z" fill="#FBFBFB" mask="url(#path-3-inside-1)"/>
</svg>
