<svg width="78" height="69" viewBox="0 0 78 69" fill="none" xmlns="http://www.w3.org/2000/svg">
<path d="M23.87 68.0573C30.899 68.0341 37.8546 66.6267 44.3397 63.9153C50.8248 61.204 56.7124 57.2419 61.6663 52.2552C66.6202 47.2686 70.5433 41.355 73.2118 34.8521C75.8803 28.3493 77.2418 21.3845 77.2186 14.3555L23.6934 14.5321L23.87 68.0573Z" fill="#E6F2FF"/>
<g clip-path="url(#clip0)">
<path d="M48.7362 45.2308H41.8397H40.8052V44.1923V37.2692C40.8052 36.5654 40.242 36 39.5408 36C38.8397 36 38.2765 36.5654 38.2765 37.2692V44.1923V45.2308H37.242H30.3454C29.6443 45.2308 29.0811 45.7962 29.0811 46.5C29.0811 47.2038 29.6443 47.7692 30.3454 47.7692H37.242H38.2765V48.8077V55.7308C38.2765 56.4346 38.8397 57 39.5408 57C40.242 57 40.8052 56.4346 40.8052 55.7308V48.8077V47.7692H41.8397H48.7362C49.4374 47.7692 50.0006 47.2038 50.0006 46.5C50.0006 45.7962 49.4374 45.2308 48.7362 45.2308Z" fill="#145FA8"/>
<path d="M21.3792 29.0769C29.3677 29.0769 35.862 22.5577 35.862 14.5385C35.862 6.51923 29.3677 0 21.3792 0C13.3907 0 6.89648 6.51923 6.89648 14.5385C6.89648 22.5577 13.3907 29.0769 21.3792 29.0769ZM21.3792 2.53846C27.9654 2.53846 33.3333 7.92692 33.3333 14.5385C33.3333 21.15 27.9654 26.5385 21.3792 26.5385C14.793 26.5385 9.42522 21.15 9.42522 14.5385C9.42522 7.92692 14.793 2.53846 21.3792 2.53846Z" fill="#2B2B2B"/>
<path d="M19.8851 38.308H23.3333C25.2989 38.308 27.2184 38.6311 29.046 39.2772C29.1839 39.3234 29.3218 39.3465 29.4598 39.3465C30 39.3465 30.4713 39.0003 30.6552 38.4926C30.7701 38.1695 30.7471 37.8234 30.5977 37.5234C30.4483 37.2234 30.1954 36.9926 29.8736 36.8772C27.7701 36.1388 25.5747 35.7695 23.3218 35.7695H19.8736C8.91954 35.7695 0 44.7234 0 55.7311C0 56.4349 0.563218 57.0003 1.26437 57.0003C1.96552 57.0003 2.52874 56.4349 2.52874 55.7311C2.52874 46.1195 10.3103 38.308 19.8851 38.308Z" fill="#2B2B2B"/>
</g>
<defs>
<clipPath id="clip0">
<rect width="50" height="57" fill="white"/>
</clipPath>
</defs>
</svg>
