<svg width="77" height="85" viewBox="0 0 77 85" fill="none" xmlns="http://www.w3.org/2000/svg">
<path d="M43.1705 0.00624197C31.9156 -0.186683 21.045 4.09931 12.9501 11.9213C4.8552 19.7434 0.199166 30.4607 0.00624235 41.7157C-0.186688 52.9706 4.0993 63.8413 11.9213 71.9362C19.7434 80.031 30.4607 84.6871 41.7157 84.88L43.1705 0.00624197Z" fill="#FFE6E6"/>
<path d="M66.3314 28.5622H66.3314C66.5068 28.5622 66.678 28.5083 66.8232 28.4077C66.9684 28.3072 67.081 28.1648 67.1474 27.9988C67.2138 27.8328 67.2311 27.6504 67.1973 27.4744C67.1635 27.2984 67.08 27.1363 66.9568 27.0087L66.9568 27.0087L55.8223 15.4765L55.8223 15.4765C55.6991 15.3489 55.5417 15.2616 55.3698 15.2262C55.1978 15.1908 55.0197 15.209 54.8579 15.2784C54.6962 15.3478 54.5586 15.465 54.462 15.6146C54.3655 15.7643 54.3141 15.9399 54.3141 16.1192V16.1192V27.6514C54.3141 27.8918 54.4063 28.1231 54.5714 28.2942C54.7367 28.4654 54.9616 28.5622 55.1969 28.5622H66.3314ZM56.0798 18.3241L64.2053 26.7406H56.0798V18.3241Z" fill="#2B2B2B" stroke="#2B2B2B" stroke-width="0.2"/>
<path d="M29.6478 36.7081H53.8099C54.002 36.7081 54.184 36.6239 54.3165 36.4778C54.4488 36.3321 54.5216 36.1363 54.5216 35.9339C54.5216 35.7316 54.4488 35.5358 54.3165 35.39C54.184 35.2439 54.002 35.1598 53.8099 35.1598H29.6478C29.4558 35.1598 29.2738 35.2439 29.1412 35.39C29.009 35.5358 28.9361 35.7316 28.9361 35.9339C28.9361 36.1363 29.009 36.3321 29.1412 36.4778C29.2738 36.6239 29.4558 36.7081 29.6478 36.7081Z" fill="#2B2B2B" stroke="#2B2B2B" stroke-width="0.2"/>
<path d="M29.6478 44.1241H53.8099C54.002 44.1241 54.184 44.0399 54.3165 43.8938C54.4488 43.7481 54.5216 43.5523 54.5216 43.3499C54.5216 43.1476 54.4488 42.9518 54.3165 42.806C54.184 42.66 54.002 42.5758 53.8099 42.5758H29.6478C29.4558 42.5758 29.2738 42.66 29.1412 42.806C29.009 42.9518 28.9361 43.1476 28.9361 43.3499C28.9361 43.5523 29.009 43.7481 29.1412 43.8938C29.2738 44.0399 29.4558 44.1241 29.6478 44.1241Z" fill="#2B2B2B" stroke="#2B2B2B" stroke-width="0.2"/>
<path d="M29.6478 51.5401H53.8099C54.002 51.5401 54.184 51.4559 54.3165 51.3099C54.4488 51.1641 54.5216 50.9683 54.5216 50.766C54.5216 50.5636 54.4488 50.3678 54.3165 50.2221C54.184 50.076 54.002 49.9918 53.8099 49.9918H29.6478C29.4558 49.9918 29.2738 50.076 29.1412 50.2221C29.009 50.3678 28.9361 50.5636 28.9361 50.766C28.9361 50.9683 29.009 51.1641 29.1412 51.3099C29.2738 51.4559 29.4558 51.5401 29.6478 51.5401Z" fill="#2B2B2B" stroke="#2B2B2B" stroke-width="0.2"/>
<mask id="path-6-outside-1" maskUnits="userSpaceOnUse" x="21.8525" y="14.3125" width="46" height="55" fill="black">
<rect fill="white" x="21.8525" y="14.3125" width="46" height="55"/>
<path fill-rule="evenodd" clip-rule="evenodd" d="M67.115 49.6895V26.8827C67.1149 26.6811 67.0324 26.4878 66.8856 26.3453L55.7511 15.5352C55.6043 15.3926 55.4052 15.3125 55.1976 15.3125H23.6354C23.4278 15.3125 23.2286 15.3926 23.0818 15.5351C22.935 15.6776 22.8525 15.871 22.8525 16.0725V67.7556C22.8525 67.9572 22.935 68.1505 23.0818 68.293C23.2286 68.4356 23.4278 68.5156 23.6354 68.5156H50.0176V66.9955H24.4182V16.8326H54.8735L65.5493 27.1973V49.6895H67.115Z"/>
</mask>
<path fill-rule="evenodd" clip-rule="evenodd" d="M67.115 49.6895V26.8827C67.1149 26.6811 67.0324 26.4878 66.8856 26.3453L55.7511 15.5352C55.6043 15.3926 55.4052 15.3125 55.1976 15.3125H23.6354C23.4278 15.3125 23.2286 15.3926 23.0818 15.5351C22.935 15.6776 22.8525 15.871 22.8525 16.0725V67.7556C22.8525 67.9572 22.935 68.1505 23.0818 68.293C23.2286 68.4356 23.4278 68.5156 23.6354 68.5156H50.0176V66.9955H24.4182V16.8326H54.8735L65.5493 27.1973V49.6895H67.115Z" fill="#2B2B2B"/>
<path d="M67.115 26.8827H67.315V26.8826L67.115 26.8827ZM67.115 49.6895V49.8895H67.315V49.6895H67.115ZM66.8856 26.3453L66.7463 26.4888L66.7463 26.4888L66.8856 26.3453ZM55.7511 15.5352L55.6118 15.6787L55.6118 15.6787L55.7511 15.5352ZM55.1976 15.3125L55.1977 15.1125H55.1976V15.3125ZM23.0818 15.5351L23.2211 15.6786L23.2211 15.6786L23.0818 15.5351ZM50.0176 68.5156V68.7156H50.2176V68.5156H50.0176ZM50.0176 66.9955H50.2176V66.7955H50.0176V66.9955ZM24.4182 66.9955H24.2182V67.1955H24.4182V66.9955ZM24.4182 16.8326V16.6326H24.2182V16.8326H24.4182ZM54.8735 16.8326L55.0128 16.6891L54.9546 16.6326H54.8735V16.8326ZM65.5493 27.1973H65.7493V27.1127L65.6886 27.0538L65.5493 27.1973ZM65.5493 49.6895H65.3493V49.8895H65.5493V49.6895ZM66.915 26.8827V49.6895H67.315V26.8827H66.915ZM66.7463 26.4888C66.855 26.5943 66.9149 26.7361 66.915 26.8827L67.315 26.8826C67.3149 26.6261 67.2099 26.3813 67.0249 26.2018L66.7463 26.4888ZM55.6118 15.6787L66.7463 26.4888L67.0249 26.2018L55.8904 15.3917L55.6118 15.6787ZM55.1976 15.5125C55.354 15.5125 55.5029 15.573 55.6118 15.6787L55.8904 15.3917C55.7057 15.2123 55.4564 15.1126 55.1977 15.1125L55.1976 15.5125ZM23.6354 15.5125H55.1976V15.1125H23.6354V15.5125ZM23.2211 15.6786C23.33 15.5729 23.4789 15.5125 23.6354 15.5125V15.1125C23.3766 15.1125 23.1273 15.2123 22.9425 15.3916L23.2211 15.6786ZM23.0525 16.0725C23.0525 15.926 23.1125 15.7841 23.2211 15.6786L22.9425 15.3916C22.7576 15.5712 22.6525 15.816 22.6525 16.0725H23.0525ZM23.0525 67.7556V16.0725H22.6525V67.7556H23.0525ZM23.2211 68.1495C23.1125 68.044 23.0525 67.9022 23.0525 67.7556H22.6525C22.6525 68.0121 22.7576 68.257 22.9425 68.4365L23.2211 68.1495ZM23.6354 68.3156C23.4789 68.3156 23.33 68.2552 23.2211 68.1495L22.9425 68.4365C23.1273 68.6159 23.3766 68.7156 23.6354 68.7156V68.3156ZM50.0176 68.3156H23.6354V68.7156H50.0176V68.3156ZM50.2176 68.5156V66.9955H49.8176V68.5156H50.2176ZM24.4182 67.1955H50.0176V66.7955H24.4182V67.1955ZM24.2182 16.8326V66.9955H24.6182V16.8326H24.2182ZM54.8735 16.6326H24.4182V17.0326H54.8735V16.6326ZM65.6886 27.0538L55.0128 16.6891L54.7342 16.9761L65.41 27.3408L65.6886 27.0538ZM65.7493 49.6895V27.1973H65.3493V49.6895H65.7493ZM65.5493 49.8895H67.115V49.4895H65.5493V49.8895Z" fill="#2B2B2B" mask="url(#path-6-outside-1)"/>
<path d="M75.6727 65.9183H68.7762H67.7417V64.8798V57.9567C67.7417 57.2529 67.1785 56.6875 66.4773 56.6875C65.7762 56.6875 65.213 57.2529 65.213 57.9567V64.8798V65.9183H64.1785H57.2819C56.5808 65.9183 56.0176 66.4837 56.0176 67.1875C56.0176 67.8913 56.5808 68.4567 57.2819 68.4567H64.1785H65.213V69.4952V76.4183C65.213 77.1221 65.7762 77.6875 66.4773 77.6875C67.1785 77.6875 67.7417 77.1221 67.7417 76.4183V69.4952V68.4567H68.7762H75.6727C76.3739 68.4567 76.9371 67.8913 76.9371 67.1875C76.9371 66.4837 76.3739 65.9183 75.6727 65.9183Z" fill="#D7202E"/>
</svg>
